<?xml version="1.0" ?><svg xmlns="http://www.w3.org/2000/svg" xmlns:xlink="http://www.w3.org/1999/xlink" version="1.1" viewBox="0 0 512 512" style="enable-background:new 0 0 512 512;" xml:space="preserve"><g id="_x34_4_Folder"><g><linearGradient id="SVGID_1_" gradientUnits="userSpaceOnUse" x1="285.5213" y1="-214.8416" x2="226.0146" y2="891.9829"><stop offset="0" style="stop-color:#EAE9FE"/><stop offset="0.4236" style="stop-color:#EEEEFE"/><stop offset="0.8967" style="stop-color:#FBFBFF"/><stop offset="1" style="stop-color:#FFFFFF"/></linearGradient><path style="fill:url(#SVGID_1_);" d="M472.914,264.292c-9.683-7.535-21.378-14.027-25.882-25.439    c-6.125-15.52,3.665-32.176,9.439-47.831c17.628-47.798-4.997-104.402-45.589-135.186    C333.444-2.891,182.282,17.694,161.159,98.864c-8.936,34.337,7.074,73.513-9.306,104.987    c-20.667,39.713-75.492,42.391-110.802,60.05c-43.746,21.878-52.499,69.515-21.125,105.783    c11.521,13.318,26.263,22.493,36.829,37.044c15.288,21.055,23.863,44.338,44.319,61.705c28.805,24.456,76.964,30.52,102.464,2.636    c14.359-15.702,19.032-38.836,34.706-53.226c20.633-18.942,53.243-16.394,79.499-6.639c26.255,9.754,50.606,25.505,78.261,29.944    c43.239,6.94,89.601-18.431,107.066-58.591S507.476,291.186,472.914,264.292z"/><path style="fill:#D8901D;" d="M412.226,80.55v163.861c0,12.158-9.856,22.014-22.014,22.014H130.954    c-12.158,0-22.014-9.856-22.014-22.014V32.924c0-12.158,9.856-22.014,22.014-22.014h88.058c12.158,0,22.014,9.856,22.014,22.014    v25.612h149.185C402.369,58.536,412.226,68.392,412.226,80.55z"/><path style="fill:#EDEDED;" d="M392.207,94.87v122.767H128.923V93.496c0-9.728,7.886-17.615,17.615-17.615h226.68    C383.705,75.881,392.207,84.382,392.207,94.87z"/><path style="fill:#5EDB6B;" d="M156.281,409.393v78.878c0,7.051-5.766,12.817-12.895,12.817H38.19    c-7.131,0-12.893-5.766-12.893-12.817v-78.878c0-7.129,5.762-12.895,12.893-12.895h105.196    C150.515,396.498,156.281,402.264,156.281,409.393z"/><path style="fill:#FF5859;" d="M326.075,409.393v78.878c0,7.051-5.766,12.817-12.895,12.817H207.984    c-7.131,0-12.893-5.766-12.893-12.817v-78.878c0-7.129,5.762-12.895,12.893-12.895H313.18    C320.309,396.498,326.075,402.264,326.075,409.393z"/><path style="fill:#2769FD;" d="M495.869,409.393v78.878c0,7.051-5.766,12.817-12.895,12.817H377.778    c-7.131,0-12.893-5.766-12.893-12.817v-78.878c0-7.129,5.762-12.895,12.893-12.895h105.196    C490.103,396.498,495.869,402.264,495.869,409.393z"/><path style="fill:#F9BB40;" d="M412.226,122.733v163.861c0,12.158-9.856,22.014-22.014,22.014H130.954    c-12.158,0-22.014-9.856-22.014-22.014V122.733c0-12.158,9.856-22.014,22.014-22.014h259.257    C402.369,100.719,412.226,110.575,412.226,122.733z"/><path style="fill:#332E8E;" d="M482.974,391.586h-47.44V376.71c0-15.273-12.426-27.696-27.698-27.696l-142.291,0.008v-35.502    h124.666c14.847,0,26.926-12.079,26.926-26.926c0-88.651,0-118.414,0-206.043c0-14.847-12.079-26.926-26.926-26.926H245.937    V32.923C245.937,18.079,233.858,6,219.013,6h-88.058c-14.847,0-26.926,12.079-26.926,26.923c0,49.66,0,202.724,0,253.67    c0,14.847,12.079,26.926,26.926,26.926h124.768v35.502l-142.399,0.008c-15.271,0.003-27.695,12.43-27.695,27.7v14.857H38.19    c-9.818,0-17.805,7.99-17.805,17.808v78.879c0,9.777,7.986,17.728,17.805,17.728h105.196c9.818,0,17.806-7.951,17.806-17.728    v-78.879c0-9.818-7.988-17.808-17.806-17.808H95.451v-14.857c0-9.857,8.02-17.875,17.875-17.878l142.346-0.008v32.743h-47.688    c-9.818,0-17.805,7.99-17.805,17.808v78.879c0,9.777,7.986,17.728,17.805,17.728H313.18c9.818,0,17.806-7.951,17.806-17.728    v-78.879c0-9.818-7.988-17.808-17.806-17.808h-47.686v-32.743l142.343-0.008c9.857,0,17.877,8.018,17.877,17.875v14.876h-47.934    c-9.818,0-17.805,7.99-17.805,17.808v78.879c0,9.777,7.986,17.728,17.805,17.728h105.196c9.818,0,17.806-7.951,17.806-17.728    v-78.879C500.781,399.575,492.793,391.586,482.974,391.586z M130.955,15.821h88.058c9.43,0,17.103,7.673,17.103,17.101v25.612    c0,2.711,2.198,4.911,4.911,4.911h149.184c9.431,0,17.104,7.673,17.104,17.104v21.406c-2.939-2.424-6.412-4.207-10.197-5.215    V94.87c0-13.178-10.721-23.898-23.9-23.898h-226.68c-12.421,0-22.525,10.103-22.525,22.524v3.255    c-3.772,1.009-7.232,2.789-10.162,5.206V32.923C113.851,23.495,121.524,15.821,130.955,15.821z M387.297,95.81H133.834v-2.315    c0-7.005,5.699-12.702,12.704-12.702h226.68c7.763,0,14.078,6.314,14.078,14.077V95.81z M113.851,286.593    c0-33.996,0-128.83,0-163.861c0-9.428,7.673-17.101,17.104-17.101h259.256c9.431,0,17.104,7.673,17.104,17.101    c0,35.017,0,129.878,0,163.861c0,9.431-7.673,17.104-17.104,17.104H130.955C121.524,303.697,113.851,296.024,113.851,286.593z     M151.37,409.393v78.879c0,4.361-3.582,7.906-7.985,7.906H38.19c-4.402,0-7.983-3.546-7.983-7.906v-78.879    c0-4.402,3.581-7.986,7.983-7.986h105.196C147.788,401.407,151.37,404.991,151.37,409.393z M321.165,409.393v78.879    c0,4.361-3.582,7.906-7.985,7.906H207.984c-4.402,0-7.983-3.546-7.983-7.906v-78.879c0-4.402,3.581-7.986,7.983-7.986H313.18    C317.582,401.407,321.165,404.991,321.165,409.393z M490.959,488.272c0,4.361-3.582,7.906-7.985,7.906H377.779    c-4.402,0-7.983-3.546-7.983-7.906v-78.879c0-4.402,3.581-7.986,7.983-7.986h105.196c4.402,0,7.985,3.584,7.985,7.986V488.272z"/><path style="fill:#332E8E;" d="M44.408,437h90.885c2.713,0,4.911-2.2,4.911-4.911c0-2.711-2.198-4.911-4.911-4.911H44.408    c-2.713,0-4.911,2.2-4.911,4.911C39.497,434.801,41.695,437,44.408,437z"/><path style="fill:#332E8E;" d="M44.408,470.407h54.044c2.713,0,4.911-2.2,4.911-4.911c0-2.711-2.198-4.911-4.911-4.911H44.408    c-2.713,0-4.911,2.2-4.911,4.911C39.497,468.207,41.695,470.407,44.408,470.407z"/><path style="fill:#332E8E;" d="M215.191,437h90.885c2.713,0,4.911-2.2,4.911-4.911c0-2.711-2.198-4.911-4.911-4.911h-90.885    c-2.713,0-4.911,2.2-4.911,4.911C210.28,434.801,212.478,437,215.191,437z"/><path style="fill:#332E8E;" d="M215.191,470.407h54.044c2.713,0,4.911-2.2,4.911-4.911c0-2.711-2.198-4.911-4.911-4.911h-54.044    c-2.713,0-4.911,2.2-4.911,4.911C210.28,468.207,212.478,470.407,215.191,470.407z"/><path style="fill:#332E8E;" d="M476.86,427.179h-90.887c-2.713,0-4.911,2.2-4.911,4.911c0,2.711,2.198,4.911,4.911,4.911h90.887    c2.713,0,4.911-2.2,4.911-4.911C481.771,429.378,479.573,427.179,476.86,427.179z"/><path style="fill:#332E8E;" d="M440.017,460.585h-54.044c-2.713,0-4.911,2.2-4.911,4.911c0,2.711,2.198,4.911,4.911,4.911h54.044    c2.713,0,4.911-2.2,4.911-4.911C444.927,462.785,442.729,460.585,440.017,460.585z"/></g></g><g id="Layer_1"/></svg>